<svg width="52" height="23" viewBox="0 0 52 23" fill="none" xmlns="http://www.w3.org/2000/svg">
<path d="M22.3384 7.43843C18.7643 7.32036 15.5204 6.84808 12.8786 6.32858C11.7714 8.54829 10.703 11.4292 10.1009 14.8532C14.588 16.0811 18.706 16.577 22.3384 16.6243V7.43843ZM22.3384 7.20229V0.495929C21.1341 0.472316 18.8226 0.519543 16.0837 1.20435C15.4038 2.05445 14.18 3.70743 12.9951 6.09244C15.5981 6.63556 18.8031 7.10784 22.3384 7.20229ZM15.734 1.2988C13.3642 1.91277 10.703 3.02262 8.21666 4.88812C9.36272 5.24233 10.9167 5.66738 12.762 6.04521C13.8887 3.8255 15.0153 2.21975 15.734 1.2988ZM12.6843 6.28135C10.7613 5.87991 9.16847 5.43125 8.00299 5.07704C5.86627 6.75363 3.8461 9.02057 2.27269 12.114C4.91446 13.2475 7.47852 14.1448 9.90661 14.806C10.5088 11.382 11.5771 8.52467 12.6843 6.28135ZM10.0814 14.9713C10.0814 14.9241 10.1009 14.8768 10.1009 14.8532C10.0426 14.8296 9.96488 14.8296 9.90661 14.806C9.90661 14.8532 9.88719 14.8768 9.88719 14.9241L10.0814 14.9713ZM28.3407 0.920981C26.0486 0.49593 24.1652 0.495929 23.2125 0.495929C22.9212 0.495929 22.9373 0.495929 22.8669 0.495929C22.6921 0.495929 22.5715 0.495929 22.5327 0.495929V7.22591C25.5241 7.29675 28.7292 7.13145 32.0314 6.51749C30.5551 3.56574 29.0011 1.65301 28.3407 0.920981ZM28.6903 0.991822C29.4479 1.88915 30.8853 3.73104 32.245 6.47026C34.0321 6.13966 35.858 5.66738 37.684 5.05342C34.6926 2.71564 31.4098 1.55856 28.6903 0.991822ZM37.9171 5.21872C36.0523 5.8563 34.2069 6.32858 32.3616 6.68278C33.4494 8.9025 34.4789 11.6653 35.0811 14.9241L34.8868 14.9713C34.2846 11.6889 33.2357 8.92611 32.1479 6.7064C29.2925 7.22591 26.4953 7.43843 23.8536 7.43843C23.4068 7.43843 22.9795 7.43843 22.5327 7.41482V16.6006C26.2234 16.6479 29.3896 16.2701 31.9925 15.7269C38.1113 14.4754 42.0934 12.2321 43.1812 11.5473C41.6855 8.85527 39.8595 6.77724 37.9171 5.21872ZM51.7475 11.0986C50.4266 7.17868 44.2107 11.1222 43.2783 11.7598C43.2977 11.807 43.2589 11.7126 43.2783 11.7598C42.1905 12.421 38.189 14.7115 32.0119 15.9867C29.5644 16.4826 26.5925 16.8604 23.1737 16.8604C17.3269 16.8604 10.1786 15.7505 2.15614 12.3029C1.30146 14.074 0.543892 16.0811 0 18.3717C0 18.3717 2.64176 19.2218 7.09002 20.0247C7.20657 21.2526 7.69219 22.693 9.22674 22.9528C11.4606 23.3306 11.9851 21.5123 12.1016 20.8039C17.8707 21.5123 25.291 21.8666 33.43 20.8984C33.5659 21.654 34.1292 23.3306 36.2854 22.9764C37.8005 22.7167 38.2861 21.3471 38.4221 20.1427L45.7064 18.3245C49.028 17.191 53.0295 14.8768 51.7475 11.0986ZM48.6589 13.4364C48.2122 13.4364 47.8625 13.0113 47.8625 12.4682C47.8625 11.9251 48.2122 11.5 48.6589 11.5C49.1057 11.5 49.4554 11.9251 49.4554 12.4682C49.4554 12.9877 49.1057 13.4364 48.6589 13.4364Z" fill="#00C298"/>
</svg>
