<svg version="1.1" xmlns="http://www.w3.org/2000/svg" viewBox="0 0 602.6152623355389 245.6484375" width="602.6152623355389" height="245.6484375">
  <!-- svg-source:excalidraw -->

  <defs>
    <style>
      @font-face {
        font-family: "Virgil";
        src: url("https://excalidraw.com/Virgil.woff2");
      }
      @font-face {
        font-family: "Cascadia";
        src: url("https://excalidraw.com/Cascadia.woff2");
      }
    </style>
  </defs>
  <rect x="0" y="0" width="602.6152623355389" height="245.6484375" fill="#ffffff"></rect><g stroke-linecap="round" transform="translate(10 10) rotate(0 126.7890625 112.82421875)"><path d="M182.53 12.49 C196.33 16.41, 209.76 25.59, 219.94 35.22 C230.12 44.85, 238.01 58.1, 243.61 70.27 C249.22 82.44, 252.88 95.15, 253.56 108.23 C254.24 121.31, 252.54 136, 247.68 148.74 C242.83 161.47, 233.84 174.41, 224.43 184.63 C215.02 194.86, 203.86 203.42, 191.21 210.11 C178.56 216.8, 163.41 222.52, 148.53 224.78 C133.64 227.03, 116.71 226.3, 101.91 223.62 C87.1 220.95, 72.21 215.54, 59.7 208.71 C47.2 201.89, 36.03 193.13, 26.88 182.69 C17.72 172.24, 9.08 158.79, 4.78 146.02 C0.48 133.26, 0.23 119.42, 1.11 106.1 C1.99 92.78, 4.12 78.15, 10.07 66.11 C16.01 54.08, 26.13 43.12, 36.77 33.91 C47.41 24.7, 60.6 16.37, 73.93 10.85 C87.26 5.33, 102.07 1.74, 116.76 0.79 C131.45 -0.16, 149.77 2.83, 162.08 5.14 C174.39 7.45, 185.14 11.92, 190.61 14.67 C196.08 17.41, 196.02 19.77, 194.9 21.61 M74.33 9.44 C86.51 2.79, 104.83 2.19, 119.73 1.49 C134.64 0.8, 149.72 1.84, 163.77 5.29 C177.83 8.73, 192.37 14.06, 204.07 22.17 C215.78 30.29, 226.09 42.33, 234.01 53.97 C241.94 65.61, 248.4 79.28, 251.62 92.01 C254.85 104.74, 255.87 117.32, 253.36 130.35 C250.86 143.39, 244.18 158.55, 236.6 170.21 C229.03 181.86, 219.51 192.12, 207.92 200.28 C196.34 208.45, 181.1 215.13, 167.09 219.2 C153.07 223.28, 138.61 224.95, 123.84 224.72 C109.07 224.5, 92.22 222.86, 78.48 217.84 C64.74 212.82, 52.22 203.95, 41.41 194.61 C30.6 185.27, 20.47 173.35, 13.63 161.77 C6.79 150.2, 1.99 138.14, 0.38 125.15 C-1.23 112.17, 0.23 96.65, 3.95 83.87 C7.67 71.09, 13.96 59.11, 22.7 48.46 C31.44 37.8, 47.82 26.54, 56.39 19.96 C64.97 13.37, 70.99 10.18, 74.16 8.96 C77.33 7.74, 74.43 10.72, 75.41 12.65" stroke="#000000" stroke-width="1" fill="none"></path></g><g transform="translate(79.3671875 98.61328125) rotate(0 55 12.5)"><text x="0" y="18" font-family="Virgil, Segoe UI Emoji" font-size="20px" fill="#000000" text-anchor="start" style="white-space: pre;" direction="ltr">CRUD APP</text></g><g stroke-linecap="round"><g transform="translate(254.03515625 63.6171875) rotate(0 164.82812834863086 -2.099734860658643)"><path d="M-0.34 1.17 C54.25 0.4, 273 -4.4, 327.68 -5.37 M1.68 0.73 C56.65 0.21, 275.23 -2.75, 330 -4.01" stroke="#000000" stroke-width="1" fill="none"></path></g><g transform="translate(254.03515625 63.6171875) rotate(0 164.82812834863086 -2.099734860658643)"><path d="M303.93 5.49 C310.17 2.32, 320.05 0.5, 328.51 -3.1 M302.27 5.81 C311.6 3.32, 320.56 0.62, 330.13 -3.81" stroke="#000000" stroke-width="1" fill="none"></path></g><g transform="translate(254.03515625 63.6171875) rotate(0 164.82812834863086 -2.099734860658643)"><path d="M303.57 -15.03 C309.79 -11.83, 319.78 -7.29, 328.51 -3.1 M301.91 -14.71 C311.37 -10.41, 320.45 -6.34, 330.13 -3.81" stroke="#000000" stroke-width="1" fill="none"></path></g></g><g stroke-linecap="round"><g transform="translate(591.75 201.15625) rotate(0 -167.5989792085765 -2.5160803208919447)"><path d="M0.87 -0.12 C-55.04 -0.86, -279.27 -2.59, -335.4 -3.34 M-0.14 -1.23 C-56.16 -1.77, -279.98 -4.55, -336.06 -4.91" stroke="#000000" stroke-width="1" fill="none"></path></g><g transform="translate(591.75 201.15625) rotate(0 -167.5989792085765 -2.5160803208919447)"><path d="M-307.98 -14 C-314.5 -11.59, -325.2 -7.45, -334.75 -2.93 M-307.2 -14.41 C-316.08 -12.11, -323.95 -9.09, -336.66 -5.56" stroke="#000000" stroke-width="1" fill="none"></path></g><g transform="translate(591.75 201.15625) rotate(0 -167.5989792085765 -2.5160803208919447)"><path d="M-308.18 6.52 C-314.83 2.71, -325.47 0.64, -334.75 -2.93 M-307.4 6.11 C-316.1 2.55, -323.9 -0.28, -336.66 -5.56" stroke="#000000" stroke-width="1" fill="none"></path></g></g><g transform="translate(295.3828125 18.375) rotate(0 101.5 12.5)"><text x="0" y="18" font-family="Virgil, Segoe UI Emoji" font-size="20px" fill="#000000" text-anchor="start" style="white-space: pre;" direction="ltr">serve GET requests</text></g><g transform="translate(298.375 161.8515625) rotate(0 120.5 12.5)"><text x="0" y="18" font-family="Virgil, Segoe UI Emoji" font-size="20px" fill="#000000" text-anchor="start" style="white-space: pre;" direction="ltr">accepts POST requests</text></g></svg>