<svg version="1.1" xmlns="http://www.w3.org/2000/svg" viewBox="0 0 756.70703125 404.4402629573169" width="756.70703125" height="404.4402629573169">
  <!-- svg-source:excalidraw -->

  <defs>
    <style>
      @font-face {
        font-family: "Virgil";
        src: url("https://excalidraw.com/Virgil.woff2");
      }
      @font-face {
        font-family: "Cascadia";
        src: url("https://excalidraw.com/Cascadia.woff2");
      }
    </style>
  </defs>
  <rect x="0" y="0" width="756.70703125" height="404.4402629573169" fill="#ffffff"></rect><g stroke-linecap="round" transform="translate(173.328125 114.8203125) rotate(0 286.689453125 37.814453125)"><path d="M-0.44 0.34 C132.87 0.44, 265.41 -0.32, 573.48 0.73 M0.32 0.27 C217.91 -1.4, 435.28 -1.24, 573.68 0.29 M572.62 -1.66 C575.22 22.63, 575.01 44.38, 575.28 75.74 M574.09 0.61 C572.17 17.71, 572.96 35.32, 573.52 76.24 M574.02 76.04 C437.75 76.36, 300.57 76.41, -0.41 75.77 M573.41 75.52 C416.84 75.49, 260.02 75.3, 0.01 75.8 M-1.81 74.4 C1.17 49.27, 0.44 21.29, -0.03 0.68 M0.87 76.55 C0.14 57.33, 1.1 39.3, 0.99 0.18" stroke="#000000" stroke-width="1" fill="none"></path></g><g stroke-linecap="round" transform="translate(558.14453125 115.125) rotate(0 26.701171875 37.88671875)"><path d="M-1.62 1.99 C15.59 -2.22, 32.04 -0.71, 51.67 0.89 M-0.73 -0.29 C19.99 0.33, 38.13 -0.11, 52.66 0.59 M55.26 -1.4 C53.03 20.23, 55.09 42.56, 54.51 74.97 M53.83 -0.55 C53.67 30.62, 53.6 59.51, 52.56 74.94 M51.8 76.74 C35.64 76.71, 16.56 77.14, 1.02 74.73 M53.66 75.76 C33.7 74.51, 12.46 74.86, -0.28 75.35 M-0.94 77.39 C1.9 46.62, -0.26 19.04, 0.35 1.9 M-0.46 76.42 C1.21 46.1, 0.27 16.28, 0.82 -0.23" stroke="#000000" stroke-width="1" fill="none"></path></g><g stroke-linecap="round" transform="translate(615.4296875 117.08203125) rotate(0 33.404296875 36.802734375)"><path d="M1.73 -1.92 C23.93 0.87, 50.1 2.2, 64.89 0.64 M0.86 -0.57 C16.42 -0.19, 32.68 1.02, 66.85 -0.35 M68.69 -1.07 C68.68 27.5, 68.22 58.45, 67.21 73.34 M66.56 -0.49 C66.63 23.4, 68.17 48.28, 66.22 73.01 M66.72 71.92 C46.25 73.57, 23.47 74.89, 1.52 72.73 M67.24 74.35 C49.22 72.17, 32.28 73.54, 0.6 73.41 M-1.69 73.93 C0.51 53.58, -2.04 32.22, 1.24 -1.87 M0.45 73.75 C-1.16 51.33, -0.95 30.62, -0.74 -0.48" stroke="#000000" stroke-width="1" fill="none"></path></g><g stroke-linecap="round" transform="translate(683.03125 116.8828125) rotate(0 29.32421875 37.06640625)"><path d="M-0.1 1.77 C20.89 1.46, 44.35 -0.47, 57.52 -0.61 M-0.64 -0.16 C20.8 1.08, 40.08 -0.13, 58.48 0.64 M59.99 1.56 C58.76 27.58, 59.56 60.3, 56.92 74.82 M58.29 -0.16 C59.24 15.68, 58.82 29.85, 58.48 74.81 M60.17 74.34 C39.4 75.54, 24.27 74.86, 1.55 76.01 M57.75 73.27 C38.95 75.08, 20.14 74.98, 0.18 74.75 M-1.61 75.96 C-0.4 50.97, 1.38 32.85, -1.03 -0.7 M0.81 73.62 C-0.72 47.99, 0.65 21.1, 0.54 -0.63" stroke="#000000" stroke-width="1" fill="none"></path></g><g stroke-linecap="round" transform="translate(498.90234375 115.96484375) rotate(0 29.958984375 37.5625)"><path d="M1.02 -0.51 C20.98 1.59, 42.3 -0.65, 58.13 0.5 M-0.62 -0.76 C16.19 0.14, 31.75 0.57, 60.81 -0.11 M58.38 -1.92 C57.86 23.51, 58.54 47.72, 60 75.34 M60.43 0.46 C60.14 25.28, 59.5 50.86, 60.64 74.47 M60.73 75.99 C38.36 76.63, 15.08 75.75, -0.61 73.77 M58.96 75.29 C47.5 74.34, 35.92 75.79, 0.81 75.14 M-0.33 76.55 C-0.22 50.69, -0.75 24.03, -0.02 0.63 M0.98 75 C-0.19 58.04, -0.57 39.37, 0.31 0.54" stroke="#000000" stroke-width="1" fill="none"></path></g><g stroke-linecap="round" transform="translate(313.134765625 115.376953125) rotate(0 26.701171875 37.88671875)"><path d="M-0.23 -1.59 C17.44 0.15, 38.55 -1.67, 55.18 -1.24 M0.26 0.49 C20.35 0.2, 39.83 0.52, 53.48 0.46 M52.02 -0.65 C52.92 27.7, 53.84 59.32, 51.41 75.12 M53.81 0.27 C53.61 27.09, 53.77 55.01, 52.94 75.54 M52.9 74.07 C32.6 74.73, 9.97 76.41, 1.46 75.23 M52.6 75.3 C34.48 75.35, 13.88 76.46, -0.47 75.96 M-0.85 76.86 C-1.56 46.81, 1.01 20.16, -1.83 0.12 M-0.93 76.19 C0.03 51.07, 0.61 26.02, 0.61 -0.5" stroke="#000000" stroke-width="1" fill="none"></path></g><g stroke-linecap="round" transform="translate(370.419921875 117.333984375) rotate(0 33.404296875 36.802734375)"><path d="M-1.59 -0.93 C19.37 1.89, 36.37 1.85, 65.57 1.3 M0.49 0.86 C14.58 0.68, 29.76 -0.1, 67.27 0.84 M66.16 0.12 C65.73 17.25, 68.23 30.43, 66.16 74.79 M67.08 -0.09 C67.14 25.05, 67.84 49.5, 66.58 74.56 M65.11 73.93 C41.43 72.26, 18.47 74.9, -0.55 74.87 M66.34 74.07 C43.05 72.32, 21.03 72.6, 0.19 74.4 M1.08 72.12 C-0.58 51.89, 1.51 26.18, 0.12 0.64 M0.41 73.75 C-0.24 51.13, -0.13 27.81, -0.5 0.6" stroke="#000000" stroke-width="1" fill="none"></path></g><g stroke-linecap="round" transform="translate(438.021484375 117.134765625) rotate(0 29.32421875 37.06640625)"><path d="M-0.93 0.55 C23.76 -0.81, 45.67 -0.77, 59.95 -1.55 M0.86 -0.27 C13.28 -0.24, 24.94 0.17, 59.49 -0.8 M58.77 -1.41 C59.18 26.66, 56.14 50.48, 59.84 74.92 M58.56 -0.14 C59.02 27.58, 58.49 53.81, 59.6 74.82 M58.97 73.38 C43.05 74.56, 31.27 73.09, 1.26 75.06 M59.11 73.5 C38.05 74.33, 18.49 74.04, 0.79 74.23 M-1.48 73.91 C1.39 50.17, -1.52 22.6, 0.64 0.3 M0.15 74.59 C1.41 45.47, 1.3 15.17, 0.6 0.78" stroke="#000000" stroke-width="1" fill="none"></path></g><g stroke-linecap="round" transform="translate(253.892578125 116.216796875) rotate(0 29.958984375 37.5625)"><path d="M0.55 1.81 C16.01 2.05, 33.32 1.58, 58.36 -1.76 M-0.27 0.85 C19.59 -0.44, 39.53 0.33, 59.12 0.45 M58.5 1.04 C60.77 15.34, 59.03 35.85, 60.71 76.41 M59.78 0.06 C60.68 25.15, 59.89 52.19, 60.6 74.58 M59.17 73.94 C44.38 76.68, 26.45 76.48, 0.92 75.89 M59.29 74.37 C47.21 74.93, 33.72 76.19, 0.1 75.61 M-0.22 76.21 C1.45 53.93, -0.29 37.04, 0.3 1.89 M0.46 75.85 C0.26 60.21, -0.81 44.68, 0.78 0.97" stroke="#000000" stroke-width="1" fill="none"></path></g><g stroke-linecap="round"><g transform="translate(530.3424161585366 346.7397103658536) rotate(0 -1.8027873218059653 -92.251621460882)"><path d="M0.57 -0.45 C-0.11 -30.87, -3.68 -151.75, -4.17 -182.29 M-0.6 -1.73 C-0.88 -32.52, -1.5 -153.88, -1.84 -184.05" stroke="#000000" stroke-width="1" fill="none"></path></g><g transform="translate(530.3424161585366 346.7397103658536) rotate(0 -1.8027873218059653 -92.251621460882)"><path d="M7.88 -157.16 C6.67 -162.36, 1.29 -172.17, -3.26 -184.85 M9.54 -156.27 C5.7 -164.35, 3.76 -171.63, -0.91 -184.76" stroke="#000000" stroke-width="1" fill="none"></path></g><g transform="translate(530.3424161585366 346.7397103658536) rotate(0 -1.8027873218059653 -92.251621460882)"><path d="M-12.64 -157 C-7.88 -162.34, -7.28 -172.2, -3.26 -184.85 M-10.98 -156.11 C-9.42 -164.15, -5.96 -171.47, -0.91 -184.76" stroke="#000000" stroke-width="1" fill="none"></path></g></g><g transform="translate(481.9892339939024 344.4402629573169) rotate(0 45 25)"><text x="0" y="18" font-family="Virgil, Segoe UI Emoji" font-size="20px" fill="#000000" text-anchor="start" style="white-space: pre;" direction="ltr">Consumer</text><text x="0" y="43" font-family="Virgil, Segoe UI Emoji" font-size="20px" fill="#000000" text-anchor="start" style="white-space: pre;" direction="ltr">(cursor)</text></g><g transform="translate(10 139.515625) rotate(0 41.5 12.5)"><text x="0" y="18" font-family="Virgil, Segoe UI Emoji" font-size="20px" fill="#000000" text-anchor="start" style="white-space: pre;" direction="ltr">Publisher</text></g><g stroke-linecap="round"><g transform="translate(104.58984375 150.01171875) rotate(0 77.21702125668526 -0.5604582728119567)"><path d="M-0.26 -0.46 C25.65 -0.25, 128.63 0.68, 154.69 0.62 M1.8 -1.74 C27.6 -1.79, 127.87 -1.26, 153.57 -0.9" stroke="#000000" stroke-width="1" fill="none"></path></g><g transform="translate(104.58984375 150.01171875) rotate(0 77.21702125668526 -0.5604582728119567)"><path d="M124.52 8.53 C133.87 8.66, 138.16 2.81, 153.84 0.53 M125.4 8.17 C131.32 6.83, 138.46 4.16, 153.11 -0.54" stroke="#000000" stroke-width="1" fill="none"></path></g><g transform="translate(104.58984375 150.01171875) rotate(0 77.21702125668526 -0.5604582728119567)"><path d="M124.71 -11.99 C133.91 -7.04, 138.15 -8.07, 153.84 0.53 M125.59 -12.35 C131.62 -8.82, 138.71 -6.61, 153.11 -0.54" stroke="#000000" stroke-width="1" fill="none"></path></g></g><g transform="translate(173.78515625 10) rotate(0 220 12.5)"><text x="0" y="18" font-family="Virgil, Segoe UI Emoji" font-size="20px" fill="#000000" text-anchor="start" style="white-space: pre;" direction="ltr">APACHE PULSAR (similar to APACHE KAFKA)</text></g><g transform="translate(184.23067434210543 85.38514254385962) rotate(0 57 12.5)"><text x="0" y="18" font-family="Virgil, Segoe UI Emoji" font-size="20px" fill="#000000" text-anchor="start" style="white-space: pre;" direction="ltr">named topic</text></g><g stroke-linecap="round"><g transform="translate(535.4334984756098 201.47160823170782) rotate(0 23.3374618902439 -0.13576600609752631)"><path d="M0 0 C7.78 -0.05, 38.9 -0.23, 46.67 -0.27 M0 0 C7.78 -0.05, 38.9 -0.23, 46.67 -0.27" stroke="#000000" stroke-width="1" fill="none"></path></g><g transform="translate(535.4334984756098 201.47160823170782) rotate(0 23.3374618902439 -0.13576600609752631)"><path d="M24.79 7.84 C31.62 5.31, 38.45 2.78, 46.67 -0.27 M24.79 7.84 C31.72 5.27, 38.64 2.71, 46.67 -0.27" stroke="#000000" stroke-width="1" fill="none"></path></g><g transform="translate(535.4334984756098 201.47160823170782) rotate(0 23.3374618902439 -0.13576600609752631)"><path d="M24.7 -8.13 C31.56 -5.67, 38.42 -3.22, 46.67 -0.27 M24.7 -8.13 C31.65 -5.64, 38.61 -3.15, 46.67 -0.27" stroke="#000000" stroke-width="1" fill="none"></path></g></g><g stroke-linecap="round"><g transform="translate(517.741044207317 201.64786585365903) rotate(0 -25.70979420731709 0)"><path d="M0 0 C-8.57 0, -42.85 0, -51.42 0 M0 0 C-8.57 0, -42.85 0, -51.42 0" stroke="#000000" stroke-width="1" fill="none"></path></g><g transform="translate(517.741044207317 201.64786585365903) rotate(0 -25.70979420731709 0)"><path d="M-27.26 -8.79 C-36.12 -5.57, -44.98 -2.34, -51.42 0 M-27.26 -8.79 C-36 -5.61, -44.74 -2.43, -51.42 0" stroke="#000000" stroke-width="1" fill="none"></path></g><g transform="translate(517.741044207317 201.64786585365903) rotate(0 -25.70979420731709 0)"><path d="M-27.26 8.79 C-36.12 5.57, -44.98 2.34, -51.42 0 M-27.26 8.79 C-36 5.61, -44.74 2.43, -51.42 0" stroke="#000000" stroke-width="1" fill="none"></path></g></g></svg>