<svg version="1.1" xmlns="http://www.w3.org/2000/svg" viewBox="0 0 1358.8281250000005 113.48307291666663" width="1358.8281250000005" height="113.48307291666663">
  <defs>
    <style>
      @font-face {
        font-family: "Virgil";
        src: url("https://excalidraw.com/Virgil.woff2");
      }
      @font-face {
        font-family: "Cascadia";
        src: url("https://excalidraw.com/Cascadia.woff2");
      }
    </style>
  </defs>
<svg version="1.1" xmlns="http://www.w3.org/2000/svg" viewBox="0 0 1358.8281250000005 149.25390625" width="1358.8281250000005" height="149.25390625">
  <!-- svg-source:excalidraw -->

  <defs>
    <style>
      @font-face {
        font-family: "Virgil";
        src: url("https://excalidraw.com/Virgil.woff2");
      }
      @font-face {
        font-family: "Cascadia";
        src: url("https://excalidraw.com/Cascadia.woff2");
      }
    </style>
  </defs>
<rect x="0" y="0" width="1358.8281250000005" height="149.25390625" fill="#ffffff"></rect><g stroke-linecap="round" transform="translate(318.5677083333335 55.016601562500114) rotate(0 312.8190104166665 37.814453125)"><path d="M0.21 0.43 C181.02 2.8, 360.88 1.94, 625.32 0.52 M-0.23 -0.05 C157.78 -0.58, 315.63 -1.22, 625.28 0.23 M627.16 0.62 C623.73 31.35, 625.42 58.73, 627.04 76.28 M626.28 0.42 C626.39 18.63, 625.18 35.16, 625.35 74.68 M626.1 75.35 C485.81 75.99, 346.64 74.99, 0.08 75.34 M625.44 75.82 C448.23 76.1, 271.25 76.36, 0.23 75.48 M-0.59 74.21 C-0.64 57.73, 2.15 41.89, -1.7 -1.86 M0.23 75.3 C0.7 56.83, 0.36 39.28, -0.68 0.16" stroke="#000000" stroke-width="1" fill="none"></path></g><g stroke-linecap="round" transform="translate(755.6432291666665 55.321289062500114) rotate(0 26.701171875 37.88671875)"><path d="M1.08 0.85 C21.35 -1.34, 39.45 -0.92, 54.71 -0.95 M-0.12 -0.55 C17.56 -0.61, 32.61 -0.59, 53.97 0.91 M54.02 -1.46 C55.43 18.52, 53.26 37.97, 54.05 74.52 M53.82 0.72 C53.44 22.52, 52.03 45.72, 52.45 75 M52.71 74.25 C43.21 74.68, 29.39 76.27, -0.73 75.44 M53.87 75.01 C35.54 75.06, 18.84 76.08, -0.36 75.05 M-1.42 74.67 C-0.1 59.32, 1.24 37.77, -1.86 -1.28 M-0.33 76.61 C-0.93 52.12, -0.63 26.79, 0.16 0.85" stroke="#000000" stroke-width="1" fill="none"></path></g><g stroke-linecap="round" transform="translate(812.9283854166665 57.278320312500114) rotate(0 33.404296875 36.802734375)"><path d="M0.85 1.11 C12.54 -1.4, 26.71 0.94, 65.86 0.23 M-0.55 0.93 C21.67 -0.58, 44.28 0.64, 67.72 -0.59 M65.34 1.8 C67.6 23.97, 68.77 49.34, 65.55 73.68 M67.53 0.69 C66.8 15.07, 66.99 30.64, 66.03 72.72 M65.29 74.71 C45.56 71.96, 27.33 72.64, -0.34 74.1 M66.04 73.1 C44.51 74.06, 23.68 73.55, -0.73 73 M-1.1 72.9 C1.91 58.06, -1.49 39.39, -1.28 0.37 M0.84 72.66 C0.33 51.07, -0.85 29.99, 0.85 0.12" stroke="#000000" stroke-width="1" fill="none"></path></g><g stroke-linecap="round" transform="translate(880.5299479166665 57.079101562500114) rotate(0 29.32421875 37.06640625)"><path d="M1.11 -1.21 C18.07 -1.03, 39.52 -1.2, 58.88 0.76 M0.93 -0.92 C13.6 -0.57, 29.09 1.23, 58.06 0.31 M60.45 0.23 C58.5 29.27, 59.53 54.48, 58.72 72.42 M59.34 -0.48 C58.24 26.71, 58 53.22, 57.76 74.1 M59.75 72.72 C36.23 73.88, 15.91 73.35, 0.5 74.67 M58.14 73.68 C44.11 74.26, 28.93 72.96, -0.6 73.33 M-0.71 75.83 C1.16 52.39, -1.33 32.77, 0.37 -0.05 M-0.95 74.63 C-0.4 49.5, 0.4 27.06, 0.12 0.8" stroke="#000000" stroke-width="1" fill="none"></path></g><g stroke-linecap="round" transform="translate(696.4010416666665 56.161132812500114) rotate(0 29.958984375 37.5625)"><path d="M-1.21 -1.04 C20.42 0.97, 41.47 -0.1, 60.68 -1.14 M-0.92 -0.66 C16.36 0.01, 35.42 -1.14, 60.23 0.76 M60.15 -0.38 C60.77 25.52, 58.11 49.81, 58.21 76.41 M59.43 -0.72 C60.17 24.73, 59.68 50.47, 59.89 75.71 M58.51 73.71 C44.21 74.72, 27.79 75.95, 0.54 74.13 M59.47 75.26 C39.7 74.46, 17.61 74.22, -0.8 74.83 M1.7 75.76 C-1.29 56.07, -0.87 41.11, -0.05 0.46 M0.5 74.48 C-1.31 55.21, 0.22 35.11, 0.8 0.69" stroke="#000000" stroke-width="1" fill="none"></path></g><g stroke-linecap="round" transform="translate(510.6334635416665 55.573242187500114) rotate(0 26.701171875 37.88671875)"><path d="M-1.04 -0.79 C19.59 -0.63, 36.8 1.08, 52.27 -0.24 M-0.66 -0.9 C13.65 1.4, 25.58 0.8, 54.16 0.31 M53.02 1.4 C54.73 15.93, 54.15 32.66, 54.69 76.61 M52.68 -0.29 C52.97 27.42, 53.04 56.36, 53.98 75.43 M51.99 75.96 C40.72 75.06, 29.99 75.94, -1 76.71 M53.54 76.35 C41.1 74.8, 28.92 74.73, -0.3 75.06 M0.63 74.07 C-1.59 55.93, 0.64 38.58, 0.46 -0.66 M-0.65 75.1 C0.87 47.52, 0.84 18.38, 0.69 0.87" stroke="#000000" stroke-width="1" fill="none"></path></g><g stroke-linecap="round" transform="translate(567.9186197916665 57.530273437500114) rotate(0 33.404296875 36.802734375)"><path d="M-0.79 1.3 C22.79 0.58, 48.25 -0.79, 66.57 -1.1 M-0.9 0.56 C27.13 -0.14, 52.76 1.2, 67.12 -0.73 M68.21 0.65 C65.64 28.77, 65.18 58.68, 67.64 75.05 M66.52 -0.95 C65.68 26.26, 66.42 54.88, 66.46 72.84 M67 72.87 C42.74 73.63, 19.9 72.14, 0.94 72.08 M67.38 73.24 C49.42 73.09, 32.68 73.4, -0.71 73.06 M-1.7 71.75 C-1.9 54.5, -0.68 35.11, -0.66 1.68 M-0.68 73.76 C0.48 58.61, 0.43 44.06, 0.87 0.82" stroke="#000000" stroke-width="1" fill="none"></path></g><g stroke-linecap="round" transform="translate(635.5201822916665 57.331054687500114) rotate(0 29.32421875 37.06640625)"><path d="M1.3 -0.95 C14.29 0.99, 26.98 -0.01, 57.55 1.85 M0.56 0.91 C11.64 0.83, 25.21 0.84, 57.92 0.9 M59.3 -1.26 C58.58 21.38, 59.79 47.01, 60.09 75.51 M57.69 -0.77 C57.23 18.63, 58.69 36.96, 57.89 74.68 M57.92 73.79 C45.68 74.73, 30.73 75.13, -1.53 73.12 M58.28 73.41 C43.1 73.67, 28.47 73.76, -0.55 73.78 M-1.86 72.85 C0.14 45.55, 0.23 16.42, 1.68 -1.89 M0.16 74.98 C0.6 49, 1.17 23.14, 0.82 -0.47" stroke="#000000" stroke-width="1" fill="none"></path></g><g stroke-linecap="round" transform="translate(451.3912760416665 56.413085937500114) rotate(0 29.958984375 37.5625)"><path d="M-0.95 0.23 C15.63 -1.53, 29.51 -1.49, 61.77 -1.83 M0.91 -0.59 C14.31 0.42, 28.31 -1.07, 60.82 0.11 M58.66 0.07 C58.74 22.4, 61.28 43.67, 61.29 74.16 M59.14 -0.88 C59.67 17.69, 59.36 33.46, 60.47 74.42 M59.58 75.62 C46.72 73.91, 33.39 73.38, -1.01 74.22 M59.19 74.52 C40.32 74.61, 21.62 74.36, -0.35 75.97 M-1.28 75.5 C0.59 50.67, -0.02 26.97, -1.89 1 M0.85 75.24 C1.31 58.13, 1.38 40.58, -0.47 0.7" stroke="#000000" stroke-width="1" fill="none"></path></g><g stroke-linecap="round"><g transform="translate(914.9010416666665 90.52050781250011) rotate(0 138.50220644883825 0.005831840261819821)"><path d="M-0.57 0.14 C45.77 -0.05, 231.32 -0.26, 277.57 -0.33 M1.33 -0.83 C47.6 -0.94, 231.07 0.6, 276.87 0.85" stroke="#000000" stroke-width="1" fill="none"></path></g><g transform="translate(914.9010416666665 90.52050781250011) rotate(0 138.50220644883825 0.005831840261819821)"><path d="M248.84 11.67 C254.77 8.18, 262.17 7.65, 275.03 -0.48 M248.02 11.22 C255.25 8.85, 259.71 7.32, 276.98 0.66" stroke="#000000" stroke-width="1" fill="none"></path></g><g transform="translate(914.9010416666665 90.52050781250011) rotate(0 138.50220644883825 0.005831840261819821)"><path d="M248.98 -8.85 C255.01 -6.99, 262.38 -2.17, 275.03 -0.48 M248.16 -9.3 C255.48 -7.35, 259.91 -4.57, 276.98 0.66" stroke="#000000" stroke-width="1" fill="none"></path></g></g><g transform="translate(1206.6549479166665 79.50488281250011) rotate(0 45 12.5)"><text x="0" y="18" font-family="Virgil, Segoe UI Emoji" font-size="20px" fill="#000000" text-anchor="start" style="white-space: pre;" direction="ltr">Consumer</text></g><g transform="translate(56.808593749999545 79.71191406250011) rotate(0 41.5 12.5)"><text x="0" y="18" font-family="Virgil, Segoe UI Emoji" font-size="20px" fill="#000000" text-anchor="start" style="white-space: pre;" direction="ltr">Publisher</text></g><g stroke-linecap="round"><g transform="translate(158.2366125661879 96.4956573788885) rotate(0 145.1390160084204 0.15094095880164105)"><path d="M-0.68 -0.14 C47.39 0.04, 240.45 1.61, 288.59 1.58 M1.16 -1.27 C49.62 -1.43, 242.74 -0.27, 290.96 0.04" stroke="#000000" stroke-width="1" fill="none"></path></g><g transform="translate(158.2366125661879 96.4956573788885) rotate(0 145.1390160084204 0.15094095880164105)"><path d="M262.47 9.03 C273.32 5.32, 278.95 2.21, 292.09 1.85 M263.02 9.4 C270.39 7.59, 276.12 5.74, 291.28 -0.59" stroke="#000000" stroke-width="1" fill="none"></path></g><g transform="translate(158.2366125661879 96.4956573788885) rotate(0 145.1390160084204 0.15094095880164105)"><path d="M262.59 -11.49 C273.48 -8.81, 279.07 -5.52, 292.09 1.85 M263.14 -11.12 C270.55 -7.97, 276.25 -4.87, 291.28 -0.59" stroke="#000000" stroke-width="1" fill="none"></path></g></g><g transform="translate(892.8541666666665 81.64550781250011) rotate(0 17 12.5)"><text x="17" y="18" font-family="Virgil, Segoe UI Emoji" font-size="20px" fill="grey" text-anchor="middle" style="white-space: pre;" direction="ltr">msg</text></g><g transform="translate(826.541666666667 86.24609375) rotate(0 17 12.5)"><text x="17" y="18" font-family="Virgil, Segoe UI Emoji" font-size="20px" fill="grey" text-anchor="middle" style="white-space: pre;" direction="ltr">msg</text></g><g transform="translate(764.0156250000005 87.73046875) rotate(0 17 12.5)"><text x="17" y="18" font-family="Virgil, Segoe UI Emoji" font-size="20px" fill="grey" text-anchor="middle" style="white-space: pre;" direction="ltr">msg</text></g><g transform="translate(705.7018229166665 77.42447916666669) rotate(0 17 12.5)"><text x="17" y="18" font-family="Virgil, Segoe UI Emoji" font-size="20px" fill="grey" text-anchor="middle" style="white-space: pre;" direction="ltr">msg</text></g><g transform="translate(644.2565104166665 86.07031250000003) rotate(0 17 12.5)"><text x="17" y="18" font-family="Virgil, Segoe UI Emoji" font-size="20px" fill="grey" text-anchor="middle" style="white-space: pre;" direction="ltr">msg</text></g><g transform="translate(579.1523437500005 85.10026041666671) rotate(0 17 12.5)"><text x="17" y="18" font-family="Virgil, Segoe UI Emoji" font-size="20px" fill="grey" text-anchor="middle" style="white-space: pre;" direction="ltr">msg</text></g><g transform="translate(513.21484375 84.12369791666669) rotate(0 17 12.5)"><text x="17" y="18" font-family="Virgil, Segoe UI Emoji" font-size="20px" fill="grey" text-anchor="middle" style="white-space: pre;" direction="ltr">msg</text></g><g transform="translate(470.37630208333303 81.42187500000003) rotate(0 17 12.5)"><text x="17" y="18" font-family="Virgil, Segoe UI Emoji" font-size="20px" fill="grey" text-anchor="middle" style="white-space: pre;" direction="ltr">msg</text></g><g stroke-linecap="round" transform="translate(10 56.174479166666686) rotate(0 76.71549479166674 41.53971354166666)"><path d="M63.76 1.61 C74.72 0.44, 90.14 1.42, 102.11 3.35 C114.08 5.29, 127.26 8.56, 135.58 13.22 C143.9 17.88, 149.66 24.68, 152.05 31.31 C154.44 37.93, 153.47 46.28, 149.91 52.98 C146.35 59.68, 139.59 66.55, 130.69 71.48 C121.78 76.41, 108.2 80.64, 96.5 82.57 C84.79 84.51, 72.16 85.02, 60.45 83.09 C48.73 81.15, 35.41 75.69, 26.21 70.97 C17.02 66.25, 9.57 60.51, 5.27 54.76 C0.98 49.02, -1.36 42.95, 0.44 36.5 C2.24 30.05, 8.24 21.24, 16.08 16.07 C23.93 10.9, 35.62 7.9, 47.51 5.45 C59.4 3.01, 76.76 1.56, 87.41 1.4 C98.06 1.23, 111.59 3.63, 111.41 4.49 M131.18 10.91 C139.43 15.13, 146.02 24.56, 148.95 31.5 C151.88 38.43, 151.13 46.56, 148.74 52.53 C146.34 58.5, 142.85 62.15, 134.57 67.31 C126.3 72.46, 110.93 81.11, 99.1 83.45 C87.28 85.8, 75.09 83.4, 63.6 81.37 C52.12 79.33, 40.35 75.39, 30.21 71.24 C20.06 67.09, 7.98 62.43, 2.75 56.47 C-2.48 50.51, -2.65 41.89, -1.17 35.5 C0.31 29.11, 4.48 23.61, 11.62 18.14 C18.77 12.66, 30.46 6.02, 41.69 2.66 C52.91 -0.7, 66.13 -2.77, 78.98 -2 C91.83 -1.23, 109.55 4.78, 118.78 7.28 C128.02 9.79, 132.32 11.56, 134.4 13.03 C136.47 14.49, 132.61 15.24, 131.24 16.09" stroke="grey" stroke-width="2" fill="none"></path></g><g stroke-linecap="round" transform="translate(1188.9843750000005 45.77083333333337) rotate(0 79.921875 46.259765625)"><path d="M51.64 2.19 C62.02 -0.58, 78.44 -1.47, 90.8 -0.24 C103.16 0.99, 115.76 5.32, 125.79 9.58 C135.81 13.85, 145.47 19.15, 150.94 25.36 C156.42 31.57, 158.79 39.35, 158.64 46.85 C158.5 54.35, 156 63.92, 150.06 70.36 C144.13 76.81, 133.9 81.59, 123.05 85.53 C112.2 89.46, 97.7 93.27, 84.96 93.99 C72.23 94.72, 57.82 93.27, 46.63 89.89 C35.44 86.51, 25.49 79.41, 17.82 73.71 C10.15 68.02, 2.71 62.55, 0.6 55.72 C-1.51 48.89, 1.2 39.59, 5.16 32.73 C9.11 25.86, 7.84 19.93, 24.33 14.54 C40.82 9.15, 84.59 -0.3, 104.1 0.39 C123.61 1.07, 141.82 17.91, 141.37 18.65 M142.15 20.08 C150.14 25.74, 155.26 35.15, 157.72 41.48 C160.18 47.81, 160.41 52, 156.89 58.05 C153.37 64.09, 145.77 72.36, 136.6 77.74 C127.43 83.11, 113.97 87.51, 101.88 90.29 C89.78 93.08, 76.14 96.22, 64.03 94.43 C51.91 92.65, 38.59 84.65, 29.17 79.6 C19.75 74.55, 12.07 70.75, 7.5 64.15 C2.92 57.54, 1.11 47.05, 1.73 39.97 C2.36 32.9, 4.85 27.92, 11.25 21.68 C17.66 15.44, 28.81 6.56, 40.14 2.54 C51.48 -1.49, 66.59 -3, 79.25 -2.5 C91.91 -2, 105.02 2.55, 116.11 5.56 C127.19 8.58, 141.7 13.61, 145.77 15.59 C149.84 17.57, 142.07 16.96, 140.55 17.45" stroke="grey" stroke-width="2" fill="none"></path></g><g transform="translate(479.53125 10) rotate(0 40 12.5)"><text x="0" y="18" font-family="Virgil, Segoe UI Emoji" font-size="20px" fill="#000000" text-anchor="start" style="white-space: pre;" direction="ltr">MyQueue</text></g></svg>