<svg width="97" height="96" viewBox="0 0 97 96" fill="none" xmlns="http://www.w3.org/2000/svg">
<g clip-path="url(#clip0)">
<circle opacity="0.5" cx="48.5" cy="48" r="48" fill="#F2994A" fill-opacity="0.2"/>
<path d="M48 28C36.972 28 28 36.972 28 48C28 59.028 36.972 68 48 68C48.45 68 48.89 67.9636 49.332 67.9336C48.756 66.7056 48.3542 65.3822 48.1562 63.9922C48.1022 63.9922 48.054 64 48 64C39.178 64 32 56.822 32 48C32 39.178 39.178 32 48 32C56.822 32 64 39.178 64 48C64 48.054 63.9922 48.1022 63.9922 48.1562C65.3822 48.3542 66.7076 48.7579 67.9336 49.3359C67.9636 48.8919 68 48.45 68 48C68 36.972 59.028 28 48 28ZM46 36V47.1719L38.5859 54.5859L41.4141 57.4141L50 48.8281V36H46ZM62 52C56.478 52 52 56.478 52 62C52 67.522 56.478 72 62 72C67.522 72 72 67.522 72 62C72 56.478 67.522 52 62 52ZM66.1016 57.3008L68.8984 60.1016L61 68L55.1016 62.1016L57.8984 59.3008L61 62.3984L66.1016 57.3008Z" fill="#F2994A"/>
</g>
<defs>
<clipPath id="clip0">
<rect x="0.5" width="96" height="96" fill="white"/>
</clipPath>
</defs>
</svg>
