<svg width="97" height="96" viewBox="0 0 97 96" fill="none" xmlns="http://www.w3.org/2000/svg">
<g clip-path="url(#clip0)">
<circle opacity="0.5" cx="48.5" cy="48" r="48" fill="#2F80ED" fill-opacity="0.2"/>
<path d="M39 55C39.9193 55 40.8295 54.819 41.6788 54.4672C42.5281 54.1154 43.2997 53.5998 43.9497 52.9498C44.5998 52.2997 45.1154 51.5281 45.4672 50.6788C45.8189 49.8295 46 48.9193 46 48C46 47.0808 45.8189 46.1705 45.4672 45.3212C45.1154 44.4719 44.5998 43.7003 43.9497 43.0503C43.2997 42.4003 42.5281 41.8846 41.6788 41.5329C40.8295 41.1811 39.9193 41 39 41C37.1435 41 35.363 41.7375 34.0503 43.0503C32.7375 44.363 32 46.1435 32 48C32 49.8565 32.7375 51.637 34.0503 52.9498C35.363 54.2625 37.1435 55 39 55ZM50 48C50.0002 49.6668 50.5951 51.2788 51.6777 52.5461C52.7603 53.8133 54.2596 54.6527 55.9059 54.9133C57.5521 55.1738 59.2373 54.8383 60.6584 53.9672C62.0794 53.0962 63.1429 51.7466 63.6577 50.1614C64.1725 48.5761 64.1048 46.8592 63.4667 45.3194C62.8286 43.7796 61.662 42.5181 60.1768 41.7617C58.6915 41.0052 56.9851 40.8036 55.3645 41.193C53.7439 41.5825 52.3154 42.5374 51.336 43.886C50.8819 42.526 50.2054 41.2507 49.334 40.112C50.9476 38.5441 53.0031 37.5087 55.2235 37.1454C57.4438 36.7821 59.7221 37.1084 61.7513 38.0802C63.7804 39.0521 65.4628 40.6228 66.5714 42.5805C67.6801 44.5382 68.1618 46.7889 67.9516 49.0289C67.7414 51.2689 66.8493 53.3906 65.3957 55.1079C63.9421 56.8251 61.9969 58.0554 59.8224 58.6327C57.6479 59.2101 55.3486 59.1067 53.2346 58.3366C51.1207 57.5665 49.2937 56.1668 48 54.326C46.4899 56.475 44.2606 58.0127 41.7154 58.661C39.1701 59.3094 36.4769 59.0256 34.1227 57.861C31.7684 56.6965 29.9086 54.7279 28.8795 52.3114C27.8504 49.8949 27.7199 47.1899 28.5117 44.6855C29.3035 42.1812 30.9652 40.0428 33.1964 38.657C35.4276 37.2713 38.0811 36.7296 40.6769 37.13C43.2727 37.5304 45.6396 38.8464 47.3496 40.8401C49.0595 42.8338 49.9997 45.3735 50 48Z" fill="#2F80ED"/>
</g>
<defs>
<clipPath id="clip0">
<rect x="0.5" width="96" height="96" fill="white"/>
</clipPath>
</defs>
</svg>
