<svg width="540" height="316" viewBox="0 0 540 316" fill="none" xmlns="http://www.w3.org/2000/svg">
<g opacity="0.9">
<g clip-path="url(#clip0)">
<path d="M334.063 33L301.148 88.4229L304.957 90.6813L337.871 35.2584L334.063 33Z" fill="#00C298"/>
<path d="M438.048 304.817C412.596 304.817 391.86 284.141 391.86 258.683C391.86 233.26 412.56 212.548 438.048 212.548C463.5 212.548 484.236 233.224 484.236 258.683C484.236 284.105 463.5 304.817 438.048 304.817ZM438.048 221.61C417.564 221.61 400.932 238.259 400.932 258.683C400.932 279.107 417.6 295.756 438.048 295.756C458.532 295.756 475.164 279.107 475.164 258.683C475.164 238.259 458.496 221.61 438.048 221.61Z" fill="#2F80ED"/>
<path d="M503.28 125.422C483.048 125.422 466.56 108.953 466.56 88.7447C466.56 68.5362 483.048 52.0674 503.28 52.0674C523.512 52.0674 540 68.5362 540 88.7447C540 108.989 523.512 125.422 503.28 125.422ZM503.28 61.1288C488.016 61.1288 475.632 73.5344 475.632 88.7447C475.632 103.991 488.052 116.361 503.28 116.361C518.544 116.361 530.928 103.955 530.928 88.7447C530.964 73.4984 518.544 61.1288 503.28 61.1288Z" fill="#2F80ED"/>
<path d="M42.444 151.635C19.044 151.635 0 132.614 0 109.241C0 85.868 19.044 66.8461 42.444 66.8461C65.844 66.8461 84.888 85.868 84.888 109.241C84.924 132.614 65.88 151.635 42.444 151.635ZM42.444 75.8716C24.012 75.8716 9.036 90.8302 9.036 109.241C9.036 127.651 24.012 142.61 42.444 142.61C60.876 142.61 75.852 127.651 75.852 109.241C75.852 90.8302 60.876 75.8716 42.444 75.8716Z" fill="#00C298"/>
<path d="M101.088 316C83.844 316 69.804 301.976 69.804 284.752C69.804 267.528 83.844 253.505 101.088 253.505C118.332 253.505 132.372 267.528 132.372 284.752C132.372 302.012 118.368 316 101.088 316ZM101.088 262.566C88.812 262.566 78.84 272.527 78.84 284.788C78.84 297.05 88.812 307.01 101.088 307.01C113.364 307.01 123.336 297.05 123.336 284.788C123.336 272.527 113.364 262.566 101.088 262.566Z" fill="#00C298"/>
<path d="M138.204 227.795C129.708 227.795 122.796 220.891 122.796 212.405C122.796 203.919 129.708 197.015 138.204 197.015C146.7 197.015 153.612 203.919 153.612 212.405C153.576 220.891 146.664 227.795 138.204 227.795ZM138.204 206.076C134.712 206.076 131.868 208.917 131.868 212.405C131.868 215.893 134.712 218.733 138.204 218.733C141.696 218.733 144.54 215.893 144.54 212.405C144.54 208.917 141.696 206.076 138.204 206.076Z" fill="#2F80ED"/>
<path d="M19.4809 189.006C24.1054 187.915 26.9691 183.286 25.8771 178.667C24.7851 174.048 20.151 171.188 15.5265 172.279C10.902 173.369 8.0383 177.998 9.13028 182.617C10.2223 187.236 14.8564 190.097 19.4809 189.006Z" fill="#2F80ED"/>
<path d="M257.611 293.087C262.236 291.996 265.099 287.367 264.007 282.748C262.915 278.129 258.281 275.269 253.657 276.359C249.032 277.45 246.168 282.079 247.26 286.698C248.352 291.317 252.986 294.177 257.611 293.087Z" fill="#00C298"/>
<path d="M477.166 181.938C481.79 180.847 484.654 176.218 483.562 171.599C482.47 166.98 477.836 164.12 473.211 165.211C468.587 166.301 465.723 170.93 466.815 175.549C467.907 180.168 472.541 183.029 477.166 181.938Z" fill="#2F80ED"/>
<path d="M413.507 10.1879C414.405 5.52704 411.351 1.02103 406.685 0.123502C402.018 -0.774029 397.507 2.27679 396.608 6.93769C395.71 11.5986 398.764 16.1045 403.431 17.0021C408.097 17.8996 412.608 14.8488 413.507 10.1879Z" fill="#00C298"/>
<path d="M121.312 15.9088C125.355 13.4137 126.607 8.11776 124.109 4.08006C121.611 0.0423553 116.309 -1.20814 112.266 1.28701C108.224 3.78216 106.972 9.07808 109.47 13.1158C111.968 17.1535 117.27 18.404 121.312 15.9088Z" fill="#2F80ED"/>
<path d="M272.839 54.0204C276.199 50.6643 276.199 45.2229 272.839 41.8668C269.479 38.5106 264.031 38.5107 260.671 41.8668C257.311 45.2229 257.311 50.6643 260.671 54.0204C264.031 57.3765 269.479 57.3765 272.839 54.0204Z" fill="#2F80ED"/>
<path d="M111.748 235.033C115.108 231.676 115.108 226.235 111.748 222.879C108.388 219.523 102.941 219.523 99.5805 222.879C96.2204 226.235 96.2204 231.676 99.5805 235.033C102.941 238.389 108.388 238.389 111.748 235.033Z" fill="#00C298"/>
<path d="M321.408 307.334C312.912 307.334 306 300.43 306 291.944C306 283.458 312.912 276.554 321.408 276.554C329.904 276.554 336.816 283.458 336.816 291.944C336.78 300.43 329.904 307.334 321.408 307.334ZM321.408 285.651C317.916 285.651 315.072 288.492 315.072 291.98C315.072 295.468 317.916 298.309 321.408 298.309C324.9 298.309 327.744 295.468 327.744 291.98C327.744 288.492 324.9 285.651 321.408 285.651Z" fill="#00C298"/>
<path d="M349.24 206.19L347.587 209.679L403.163 235.936L404.816 232.447L349.24 206.19Z" fill="#2F80ED"/>
<path d="M470.402 100.083L347.928 140.526L349.32 144.729L471.794 104.287L470.402 100.083Z" fill="#2F80ED"/>
<path d="M79.726 116.886L78.8042 119.955L176.281 149.17L177.203 146.102L79.726 116.886Z" fill="#00C298"/>
<path d="M176.729 199.011L148.362 208.398L149.387 211.49L177.754 202.103L176.729 199.011Z" fill="#2F80ED"/>
<path d="M194.127 231.42L123.636 270.247L125.284 273.23L195.774 234.404L194.127 231.42Z" fill="#00C298"/>
<path d="M306.993 254.25L303.628 255.802L315.686 281.886L319.051 280.335L306.993 254.25Z" fill="#00C298"/>
<path d="M203.148 39.5539C211.608 38.9067 219.024 45.2713 219.672 53.7214C220.32 62.1716 213.948 69.5789 205.488 70.2262C197.028 70.8734 189.612 64.5088 188.964 56.0587C188.316 47.6085 194.688 40.2012 203.148 39.5539ZM204.804 61.2007C208.296 60.949 210.924 57.8926 210.636 54.4046C210.384 50.9167 207.324 48.2917 203.832 48.5794C200.34 48.8311 197.712 51.8875 198 55.3755C198.252 58.8634 201.312 61.4884 204.804 61.2007Z" fill="#2F80ED"/>
<path d="M210.961 64.4293L207.399 66.4089L221.384 91.5137L224.946 89.5341L210.961 64.4293Z" fill="#2F80ED"/>
<path d="M353.988 18.7342C358.74 25.782 356.832 35.3468 349.812 40.0573C342.756 44.8038 333.18 42.898 328.464 35.8862C323.712 28.8384 325.62 19.2735 332.64 14.563C339.696 9.85251 349.272 11.7223 353.988 18.7342ZM335.952 30.8521C337.896 33.7647 341.856 34.5198 344.736 32.5781C347.652 30.6363 348.408 26.6809 346.464 23.8043C344.52 20.8917 340.56 20.1365 337.68 22.0783C334.8 24.02 334.008 27.9754 335.952 30.8521Z" fill="#00C298"/>
<path d="M348.984 158.18L359.208 157.461C354.888 132.074 340.596 110.068 320.544 95.5767L315.18 104.243C332.568 117.008 344.988 136.137 348.984 158.18Z" fill="#00C298"/>
<path d="M264.24 87.5221C283.284 87.5221 300.888 93.7428 315.18 104.207L320.544 95.5408C304.704 84.1061 285.264 77.3459 264.24 77.3459C243.54 77.3459 224.352 83.8903 208.62 95.0373L215.172 102.876C229.104 93.2035 246.024 87.5221 264.24 87.5221Z" fill="#00C298"/>
<path d="M215.172 102.876L208.62 95.0373C198.36 102.301 189.576 111.542 182.844 122.15L191.664 127.256C197.82 117.691 205.812 109.385 215.172 102.876Z" fill="#2F80ED"/>
<path d="M359.208 157.461L348.984 158.18C349.884 163.178 350.388 168.32 350.388 173.606C350.388 221.071 311.724 259.654 264.24 259.654C216.72 259.654 178.092 221.035 178.092 173.606C178.092 156.562 183.096 140.668 191.664 127.292L182.844 122.186C173.376 137.072 167.904 154.692 167.904 173.606C167.904 226.68 211.104 269.83 264.24 269.83C317.376 269.83 360.576 226.68 360.576 173.606C360.576 168.104 360.108 162.71 359.208 157.461Z" fill="#2F80ED"/>
<g clip-path="url(#clip1)">
<path d="M288.328 187.621C288.328 187.621 288.328 187.76 288.367 187.945H287.604L288.328 187.621Z" fill="#010202" stroke="#010202" stroke-miterlimit="10"/>
<path d="M256.818 166.553C249.807 166.322 243.444 165.398 238.262 164.382C236.09 168.725 233.994 174.361 232.813 181.061C241.615 183.463 249.693 184.433 256.818 184.526V166.553ZM256.818 166.091V152.97C254.455 152.924 249.921 153.016 244.549 154.356C243.215 156.02 240.815 159.254 238.49 163.92C243.596 164.983 249.883 165.907 256.818 166.091ZM243.863 154.541C239.214 155.742 233.994 157.914 229.117 161.564C231.365 162.257 234.414 163.088 238.033 163.828C240.243 159.485 242.453 156.343 243.863 154.541ZM237.881 164.29C234.109 163.504 230.984 162.626 228.698 161.933C224.507 165.214 220.544 169.649 217.458 175.701C222.64 177.919 227.669 179.675 232.432 180.968C233.613 174.269 235.709 168.679 237.881 164.29ZM232.775 181.292C232.775 181.199 232.813 181.107 232.813 181.061C232.699 181.014 232.547 181.014 232.432 180.968C232.432 181.061 232.394 181.107 232.394 181.199L232.775 181.292ZM268.591 153.802C264.095 152.97 260.401 152.97 258.532 152.97C257.961 152.97 257.992 152.97 257.854 152.97C257.511 152.97 257.275 152.97 257.199 152.97V166.138C263.066 166.276 269.353 165.953 275.831 164.752C272.935 158.976 269.887 155.234 268.591 153.802ZM269.277 153.94C270.763 155.696 273.583 159.3 276.25 164.659C279.755 164.012 283.337 163.088 286.919 161.887C281.051 157.313 274.611 155.049 269.277 153.94ZM287.376 162.21C283.718 163.458 280.098 164.382 276.479 165.075C278.612 169.418 280.632 174.823 281.813 181.199L281.432 181.292C280.251 174.87 278.193 169.464 276.059 165.121C270.458 166.138 264.972 166.553 259.79 166.553C258.913 166.553 258.075 166.553 257.199 166.507V184.479C264.438 184.572 270.649 183.833 275.755 182.77C287.757 180.321 295.568 175.932 297.702 174.592C294.768 169.325 291.186 165.26 287.376 162.21ZM314.505 173.715C311.914 166.045 299.721 173.761 297.892 175.008C297.93 175.101 297.854 174.916 297.892 175.008C295.758 176.302 287.909 180.783 275.793 183.278C270.992 184.248 265.162 184.988 258.456 184.988C246.987 184.988 232.966 182.816 217.229 176.071C215.553 179.536 214.067 183.463 213 187.945C213 187.945 218.182 189.608 226.907 191.179C227.136 193.581 228.089 196.399 231.099 196.908C235.48 197.647 236.509 194.089 236.738 192.703C248.054 194.089 262.609 194.782 278.574 192.888C278.841 194.367 279.946 197.647 284.175 196.954C287.147 196.446 288.1 193.766 288.366 191.41L302.655 187.852C309.17 185.634 317.019 181.107 314.505 173.715ZM308.446 178.288C307.57 178.288 306.884 177.457 306.884 176.394C306.884 175.332 307.57 174.5 308.446 174.5C309.323 174.5 310.009 175.332 310.009 176.394C310.009 177.411 309.323 178.288 308.446 178.288Z" fill="#00C298"/>
</g>
<path d="M51.8 106.387C50.8933 101.787 46.8533 98.3333 42 98.3333C38.1467 98.3333 34.8 100.52 33.1333 103.72C29.12 104.147 26 107.547 26 111.667C26 116.08 29.5867 119.667 34 119.667H51.3333C55.0133 119.667 58 116.68 58 113C58 109.48 55.2667 106.627 51.8 106.387Z" fill="#00C298"/>
<path d="M448 237.02L428 237C425.79 237 424 238.79 424 241V277C424 279.21 425.79 281 428 281H448C450.21 281 452 279.21 452 277V241C452 238.79 450.21 237.02 448 237.02ZM448 273H428V245H448V273Z" fill="#2F80ED"/>
<path d="M495.757 72.5367C494.059 72.5367 492.684 73.9121 492.684 75.6102V103.271C492.684 104.969 494.059 106.345 495.757 106.345H511.124C512.822 106.345 514.198 104.969 514.198 103.271V75.6102C514.198 73.9121 512.822 72.5367 511.124 72.5367H495.757ZM498.83 78.6836V81.757H508.051V78.6836H498.83ZM498.83 84.8305V87.9039H508.051V84.8305H498.83ZM503.441 96.3559C502.168 96.3559 501.136 97.3885 501.136 98.6609C501.136 99.9333 502.168 100.966 503.441 100.966C504.713 100.966 505.746 99.9333 505.746 98.6609C505.746 97.3885 504.713 96.3559 503.441 96.3559Z" fill="#2F80ED"/>
<circle cx="503.5" cy="98.5" r="2.5" fill="white"/>
<rect x="498" y="79" width="11" height="4" fill="white"/>
<rect x="498" y="85" width="11" height="4" fill="white"/>
<path d="M101 277C96.58 277 93 278.79 93 281C93 283.21 96.58 285 101 285C105.42 285 109 283.21 109 281C109 278.79 105.42 277 101 277ZM93 283V286C93 288.21 96.58 290 101 290C105.42 290 109 288.21 109 286V283C109 285.21 105.42 287 101 287C96.58 287 93 285.21 93 283ZM93 288V291C93 293.21 96.58 295 101 295C105.42 295 109 293.21 109 291V288C109 290.21 105.42 292 101 292C96.58 292 93 290.21 93 288Z" fill="#00C298"/>
</g>
</g>
<defs>
<clipPath id="clip0">
<rect width="540" height="316" fill="white"/>
</clipPath>
<clipPath id="clip1">
<rect x="213" y="152" width="102" height="45" fill="white"/>
</clipPath>
</defs>
</svg>
